HIERARCHY
ROOT ROOT
{
	OFFSET 0.000000 56.020000 -5.659234
	CHANNELS 6 Xposition Yposition Zposition Xrotation Yrotation Zrotation 
	JOINT C_spine0001_bind_JNT
	{
		OFFSET 0.000000 1.618999 0.000000
		CHANNELS 3 Xrotation Yrotation Zrotation
		JOINT C_spine0002_bind_JNT
		{
			OFFSET 0.000000 4.942001 0.000001
			CHANNELS 3 Xrotation Yrotation Zrotation
			JOINT C_spine0003_bind_JNT
			{
				OFFSET 0.000000 4.942001 -0.000000
				CHANNELS 3 Xrotation Yrotation Zrotation
				JOINT C_neck0001_bind_JNT
				{
					OFFSET 0.000000 17.026009 -0.000000
					CHANNELS 3 Xrotation Yrotation Zrotation
					JOINT C_neck0002_bind_JNT
					{
						OFFSET 0.000000 3.249985 0.000000
						CHANNELS 3 Xrotation Yrotation Zrotation
						JOINT C_head_bind_JNT
						{
							OFFSET 0.000000 5.278008 0.000000
							CHANNELS 3 Xrotation Yrotation Zrotation
							End Site
							{
								OFFSET 0.000000 0.000000 0.000000
							}
						}
					}
				}
				JOINT L_clavicle_bind_JNT
				{
					OFFSET 4.590000 12.067001 0.834000
					CHANNELS 3 Xrotation Yrotation Zrotation
					JOINT L_armUpper0001_bind_JNT
					{
						OFFSET 7.812635 0.512001 -3.452945
						CHANNELS 3 Xrotation Yrotation Zrotation
						JOINT L_armLower0001_bind_JNT
						{
							OFFSET 15.265892 -6.552116 -0.058157
							CHANNELS 3 Xrotation Yrotation Zrotation
							JOINT L_hand0001_bind_JNT
							{
								OFFSET 14.747667 -6.369995 5.049225
								CHANNELS 3 Xrotation Yrotation Zrotation
								End Site
								{
									OFFSET 0.000000 0.000000 0.000000
								}
							}
						}
					}
				}
				JOINT R_clavicle_bind_JNT
				{
					OFFSET -4.590000 12.067001 0.834000
					CHANNELS 3 Xrotation Yrotation Zrotation
					JOINT R_armUpper0001_bind_JNT
					{
						OFFSET -7.812635 0.512001 -3.452945
						CHANNELS 3 Xrotation Yrotation Zrotation
						JOINT R_armLower0001_bind_JNT
						{
							OFFSET -15.265890 -6.552124 -0.058160
							CHANNELS 3 Xrotation Yrotation Zrotation
							JOINT R_hand0001_bind_JNT
							{
								OFFSET -14.746784 -6.369629 5.048937
								CHANNELS 3 Xrotation Yrotation Zrotation
								End Site
								{
									OFFSET 0.000000 0.000000 0.000000
								}
							}
						}
					}
				}
			}
		}
	}
	JOINT C_pelvis0001_bind_JNT
	{
		OFFSET -0.000000 0.000000 0.000000
		CHANNELS 3 Xrotation Yrotation Zrotation
		JOINT L_legUpper0001_bind_JNT
		{
			OFFSET 6.599999 -6.027000 0.539000
			CHANNELS 3 Xrotation Yrotation Zrotation
			JOINT L_legLower0001_bind_JNT
			{
				OFFSET -0.140713 -19.187443 0.040261
				CHANNELS 3 Xrotation Yrotation Zrotation
				JOINT L_foot0001_bind_JNT
				{
					OFFSET -0.132215 -18.028637 -1.138370
					CHANNELS 3 Xrotation Yrotation Zrotation
					JOINT L_foot0002_bind_JNT
					{
						OFFSET 0.007014 -4.693133 9.886524
						CHANNELS 3 Xrotation Yrotation Zrotation
						End Site
						{
							OFFSET 0.000000 0.000000 0.000000
						}
					}
				}
			}
		}
		JOINT R_legUpper0001_bind_JNT
		{
			OFFSET -6.599999 -6.027000 0.539000
			CHANNELS 3 Xrotation Yrotation Zrotation
			JOINT R_legLower0001_bind_JNT
			{
				OFFSET 0.140710 -19.187164 0.040550
				CHANNELS 3 Xrotation Yrotation Zrotation
				JOINT R_foot0001_bind_JNT
				{
					OFFSET 0.132215 -18.028633 -1.138362
					CHANNELS 3 Xrotation Yrotation Zrotation
					JOINT R_foot0002_bind_JNT
					{
						OFFSET -0.007014 -4.693128 9.886505
						CHANNELS 3 Xrotation Yrotation Zrotation
						End Site
						{
							OFFSET 0.000000 0.000000 0.000000
						}
					}
				}
			}
		}
	}
}
MOTION
Frames: 9
Frame Time: 0.033333
-18.312630 47.280952 74.356979 0.006101 -36.701828 -0.031167 -1.292609 15.129460 -3.143830 17.466225 -0.367241 -0.795245 8.539303 -0.263835 0.193654 2.082299 -1.706650 -1.484751 -0.511732 9.398772 1.882018 3.974486 2.042007 4.824909 -2.058846 13.025985 -1.549318 -31.241060 3.110723 -37.449520 -84.949871 -6.669137 -15.373271 -16.488214 -18.564339 1.037896 -1.120174 -12.989799 1.241937 -25.170637 -3.970238 37.489861 -81.454115 17.395281 14.669725 -0.471471 15.571917 27.195023 1.931098 14.841652 -3.841910 -24.677145 -1.656919 -1.816497 34.759579 -2.101553 -0.569752 -10.319272 -0.731070 3.746760 -1.145177 -0.252870 0.288889 -21.014332 1.073856 -4.690096 61.522728 -3.931285 6.846637 3.837576 4.031410 6.258846 -22.020243 0.085055 -1.098119
-18.174530 47.375511 75.240105 -0.004992 -37.045475 -0.044517 -1.662897 14.634641 -3.306501 17.864697 -0.644500 -0.457964 8.509870 -0.607515 0.465823 2.272640 -1.773957 -1.694567 -0.594956 10.044790 1.769024 3.558865 2.185258 5.258470 -2.308871 12.615367 -1.382837 -31.857646 2.276468 -37.124878 -85.157522 -5.617563 -15.365198 -16.052088 -18.359091 2.048998 -1.167741 -13.031971 1.379700 -25.548462 -4.119132 37.119747 -82.075082 17.476206 15.649462 -0.653407 15.512397 26.600294 1.583034 14.374802 -3.885055 -23.247150 -1.551826 -2.330019 35.010586 -1.269840 -0.849780 -11.476081 -0.511598 4.526640 -1.324612 -0.220780 0.404914 -23.248405 1.270832 -4.813873 63.503456 -4.134470 7.300781 4.802329 3.602496 6.109413 -17.887171 -0.150681 -0.564215
-18.088240 47.423725 76.054001 0.017440 -37.228901 -0.028635 -1.806541 14.056587 -3.608662 17.975960 -1.053226 -0.086234 8.710161 -0.975932 0.638795 2.262361 -1.681298 -1.725631 -0.483745 10.595783 1.759444 3.215321 2.343306 5.662520 -2.517972 12.340025 -1.013307 -32.627396 1.452470 -36.905281 -85.641887 -4.946711 -15.587341 -15.647703 -18.009182 3.170814 -1.225624 -12.886867 1.394539 -25.800065 -4.175833 37.082077 -82.721607 17.567749 16.459154 -0.812682 15.744370 26.295099 1.449021 13.712238 -4.285211 -22.006872 -1.432740 -2.097022 34.873375 -0.789166 -1.035341 -12.312548 -0.224451 4.922929 -1.485749 -0.276873 0.271343 -25.164814 0.961670 -4.732719 64.230354 -4.127110 7.556615 4.152612 3.042643 5.835370 -14.684649 -0.107172 -0.197982
-18.018450 47.474678 76.757248 -0.001573 -37.411915 -0.038836 -2.080766 13.482923 -3.897582 18.340654 -1.416654 0.421717 8.783867 -1.431976 0.911876 2.200526 -1.832026 -1.936020 -0.535024 11.244914 1.649345 3.178263 2.449991 6.008589 -2.740983 11.950203 -0.808313 -33.481597 0.303627 -36.877235 -86.204556 -3.905052 -15.705570 -15.301827 -17.731453 4.559148 -1.135283 -12.820468 1.620517 -26.204721 -4.234579 36.955425 -83.425285 17.757759 17.137518 -0.870574 15.639188 25.952539 1.172223 13.132250 -4.345216 -20.496384 -0.839261 -2.319045 34.162285 -0.325399 -1.003708 -12.771202 -0.257594 5.476189 -1.466073 -0.132014 0.236442 -26.779037 1.034287 -4.420389 63.372952 -5.022566 7.989306 2.710390 2.577212 5.283003 -12.073710 -0.176635 0.013680
-17.999716 47.585144 77.426224 0.014369 -37.502419 -0.035169 -2.288909 12.711814 -4.298134 18.676868 -1.776597 0.960245 8.887546 -1.795485 1.193046 1.965581 -1.779969 -1.849816 -0.416842 11.723282 1.332881 3.064816 2.473532 6.390400 -2.992885 11.429674 -0.556117 -34.294451 -0.524671 -37.219311 -86.621027 -3.212248 -15.593671 -14.919083 -17.747152 5.667446 -1.318542 -12.780117 1.769096 -26.324797 -4.512951 37.002487 -83.781624 17.882311 17.655603 -1.126655 15.637605 25.753714 1.108252 12.251434 -4.714541 -19.004805 -0.373239 -2.085088 33.111168 0.125018 -0.845538 -13.205899 -0.102194 5.633980 -1.533296 -0.023082 0.135554 -28.391731 0.580880 -3.929176 61.441563 -5.395307 7.777710 0.647853 2.173576 5.329273 -10.496300 -0.178832 -0.249450
-18.032938 47.743279 78.070419 0.012279 -37.446629 -0.029626 -2.287865 11.797343 -4.538614 18.720228 -2.128918 1.490269 9.006058 -2.162471 1.408030 1.994493 -1.728155 -1.885901 -0.539717 12.055741 1.038495 2.957162 2.659325 6.895854 -3.184009 10.925954 -0.394012 -35.202031 -1.277135 -37.648289 -87.216558 -2.439317 -15.650903 -14.328295 -17.887402 6.868934 -1.374454 -12.899702 2.106097 -26.349830 -4.886696 36.971649 -84.186409 18.370911 17.848066 -1.219615 15.549992 25.859501 0.958508 11.400136 -4.890260 -17.255951 0.227255 -2.069449 31.585566 0.845859 -0.814789 -13.076644 -0.083772 5.716725 -1.715695 0.050339 0.311750 -29.297575 0.421131 -3.422537 57.474037 -6.452862 7.508932 -0.738560 2.627507 5.411578 -9.987306 -0.200671 0.188152
-18.143896 47.852936 78.663010 0.020659 -37.336308 -0.024610 -2.092177 10.778416 -4.729047 18.720083 -2.374747 1.760621 9.032681 -2.509838 1.684503 1.836789 -1.681148 -2.044763 -0.419778 12.281834 0.841843 2.818784 3.123649 7.238657 -3.412641 10.415633 -0.343840 -36.134506 -2.146015 -38.489544 -87.894447 -1.513560 -15.248651 -14.088851 -18.117840 7.950272 -1.189049 -13.066684 2.427387 -26.442299 -5.024181 36.746181 -84.518040 18.409067 18.612661 -1.174657 15.848552 25.527988 1.153244 10.381860 -5.179655 -16.065336 0.395130 -1.838689 30.516569 1.473993 -1.015001 -13.255838 0.007903 5.685371 -1.945293 0.337559 0.423708 -30.530811 0.158992 -2.876798 52.615250 -6.825705 6.995476 -1.414209 2.421195 6.087995 -8.907907 -0.328275 0.805374
-18.316786 47.887650 79.136208 0.026080 -37.520096 -0.017959 -1.975929 10.072122 -4.733188 18.777098 -2.710464 2.019793 8.938149 -2.894543 1.770940 1.647245 -1.485583 -2.227993 -0.369008 12.690505 0.843222 2.905935 3.366314 7.482958 -3.401329 10.043469 -0.274461 -37.385517 -3.160771 -39.548615 -88.479700 -0.314359 -15.010921 -14.232371 -18.434452 9.217751 -1.008817 -13.077871 2.779494 -26.304854 -5.438651 36.632355 -84.801521 18.377705 19.023794 -0.966028 16.088425 25.625519 1.258066 9.556026 -4.875635 -15.077215 0.904995 -1.924975 29.583952 2.084759 -1.454113 -13.271165 0.085606 5.730095 -2.105977 0.188908 0.490534 -31.042580 0.361491 -2.572840 45.562988 -7.444761 5.944231 -0.455232 2.244426 7.215533 -6.392120 -0.342773 1.434702
-18.528755 47.911102 79.564240 0.019472 -37.317398 -0.016012 -1.792804 8.789015 -4.707493 18.568943 -2.877069 2.161869 8.960424 -2.889400 1.859624 1.578815 -1.550735 -2.215437 -0.322855 13.095470 0.570842 2.722274 3.536162 7.357011 -3.317937 9.679519 -0.241061 -38.534893 -4.318192 -40.618439 -89.136356 0.535612 -15.105755 -14.176868 -18.551807 10.601625 -0.792654 -13.436615 3.231862 -26.281149 -5.767425 36.703960 -84.789449 18.487448 19.086035 -1.030488 16.395647 25.879477 1.441401 8.257214 -4.740574 -14.309821 0.947649 -1.880625 28.949780 2.933605 -2.000231 -13.397069 0.254613 5.933960 -2.298444 0.289547 0.269689 -30.628975 0.281582 -1.670105 36.924614 -7.639456 4.627090 0.656932 1.672359 7.482156 -3.412701 -0.644786 1.676322
